# xmcd CD database file generated by Grip 3.2.0
# 
# Track frame offsets:
#       150
#       13254
#       26919
#       40833
#       55585
#       71393
#       84814
#       97385
#       112183
#       126919
#       141239
#       156558
#       172458
#       187070
#       200643
#       216601
# 
# Disc length: 3074 seconds
# 
# Revision: 3
# Processed by: cddbd v1.5.2PL0 Copyright (c) Steve Scherf et al.
# Submitted via: Grip 3.2.0
# 
DISCID=030c0010
DTITLE=Billie Holiday - BestOf
DYEAR=2004
DGENRE=Jazz
TTITLE0=That Old Devil Called Love
TTITLE1=My Old Flame
TTITLE2=He's Funny That Way
TTITLE3=I'm Yours
TTITLE4=I Cover The Waterfront
TTITLE5=I'll Get By
TTITLE6=No More
TTITLE7=Lover Man
TTITLE8=Embraceable You
TTITLE9=As Time Goes By
TTITLE10=Lover Come Back To Me
TTITLE11=I'll Be Seing You
TTITLE12=Trav'lin' Light
TTITLE13=On The Sunny Side Of The Street
TTITLE14=Do Nothing Till You Hear From Me
TTITLE15=Billie's Blues
EXTD=
EXTT0=
EXTT1=
EXTT2=
EXTT3=
EXTT4=
EXTT5=
EXTT6=
EXTT7=
EXTT8=
EXTT9=
EXTT10=
EXTT11=
EXTT12=
EXTT13=
EXTT14=
EXTT15=
PLAYORDER=
